# xmcd
#
# Track frame offsets: 
#        183
#        14185
#        27858
#        41308
#        54620
#        68860
#        82203
#        94025
#        105550
#        119173
#        132630
#        142795
#        160775
#        178540
#        190310
#        203438
#        217523
#        231465
#        245085
#        259015
#        271578
#        287010
#
# Disc length: 3989 seconds
#
# Revision: 1
# Processed by: cddbd v1.5.2PL0 Copyright (c) Steve Scherf et al.
# Submitted via: ExactAudioCopy v0.99pb5
#
DISCID=3d0f9316
DTITLE=Roy Eldridge - Heckler's Hop
DYEAR=1991
DGENRE=Jazz
TTITLE0=I Hope Gabriel Likes My Music
TTITLE1=Mutiny In The Parlour
TTITLE2=I'm Gonna Clap My Hands
TTITLE3=Swing Is Here
TTITLE4=Wabash Stomp
TTITLE5=Florida Stomp
TTITLE6=Heckler's Hop
TTITLE7=Where The Lazy River Goes By
TTITLE8=That Thing
TTITLE9=After You've Gone
TTITLE10=Sittin' In
TTITLE11=Stardust
TTITLE12=Body And Soul
TTITLE13=Forty Six, West Fifty Two
TTITLE14=It's My Turn Now
TTITLE15=You're A Lucky Guy
TTITLE16=Pluckin' The Bass
TTITLE17=I'm Gettin' Sentimental Over You
TTITLE18=High Society
TTITLE19=Muskrat Ramble
TTITLE20=Who Told You I Cared
TTITLE21=Does Your Heart Beat For Me
EXTD=YEAR: 1937
EXTT0=
EXTT1=
EXTT2=
EXTT3=
EXTT4=
EXTT5=
EXTT6=
EXTT7=
EXTT8=
EXTT9=
EXTT10=
EXTT11=
EXTT12=
EXTT13=
EXTT14=
EXTT15=
EXTT16=
EXTT17=
EXTT18=
EXTT19=
EXTT20=
EXTT21=
PLAYORDER=
